<svg width="80" height="46" viewBox="0 0 80 46" fill="none" xmlns="http://www.w3.org/2000/svg">
<path fill-rule="evenodd" clip-rule="evenodd" d="M0.90164 22.8953C0.938762 22.8627 13.627 6.89505 19.4911 6.75987C23.9747 6.65545 27.6913 12.2811 29.9369 14.6192C31.1051 15.8357 32.1106 16.0334 33.3578 15.0502C36.9112 12.2502 41.2597 5.14813 46.0258 1.58977C48.296 -0.104341 50.711 -0.45035 53.368 0.579937C59.6276 3.00696 68.948 12.4193 78.5241 23.1067L78.5065 23.3137C71.7753 17.2071 60.3635 5.67479 52.253 4.19288C45.7338 3.00061 40.2195 12.9917 35.238 17.0216C32.7933 18.9979 31.6828 18.119 29.6913 16.0247C27.5515 13.7762 23.6595 9.20139 19.9637 9.48804C14.2865 9.92914 0.919506 23.3407 0.883972 23.3731L0.90164 22.8953Z" fill="white"/>
<path fill-rule="evenodd" clip-rule="evenodd" d="M10.9506 36.0801C10.556 33.7682 10.2886 31.2376 9.92893 28.1156C9.76694 28.1396 9.59304 28.1736 9.43026 28.1736C9.26804 28.1736 9.10589 28.1396 8.94208 28.1156C8.06012 30.1009 7.07407 31.9235 6.23793 33.5713C5.32119 31.7488 4.40465 29.9381 3.56911 28.1156C3.40533 28.1396 3.24315 28.1736 3.08096 28.1736C2.91818 28.1736 2.76751 28.1396 2.60532 28.1156C2.21008 31.0522 1.83906 33.7451 1.42059 36.0801C1.607 36.0571 1.76899 36.02 1.95519 36.02C2.1404 36.02 2.3151 36.0571 2.5011 36.0801C2.53584 34.4531 2.72106 32.84 2.98846 30.7975C3.87025 32.6191 4.78679 34.4184 5.52983 36.02C5.6811 35.9859 5.82085 35.9976 5.97152 36.02C6.79536 34.2215 7.66564 32.4452 8.54743 30.6694C8.72212 32.4569 8.95439 34.233 9.04713 36.0801C9.3723 36.0571 9.66189 36.02 9.98769 36.02C10.3121 36.02 10.6255 36.0571 10.9506 36.0801Z" fill="white"/>
<path fill-rule="evenodd" clip-rule="evenodd" d="M21.5972 31.8181C21.5972 33.7447 20.7956 35.5325 19.0088 35.5325C17.2682 35.5325 16.5823 33.9307 16.5823 32.421C16.5823 29.822 17.5461 28.6034 19.1594 28.6034C20.9006 28.6034 21.5972 30.3215 21.5972 31.8181ZM23.5239 32.0389C23.5123 30.2395 22.5377 27.906 19.2297 27.906C16.3392 27.906 14.6559 29.7746 14.6559 32.0853C14.6559 34.72 16.3856 36.2311 18.9508 36.2311C21.7949 36.2311 23.5353 34.3023 23.5239 32.0389Z" fill="white"/>
<path fill-rule="evenodd" clip-rule="evenodd" d="M34.7385 36.0801V28.1156C34.4483 28.1396 34.1576 28.1736 33.868 28.1736C33.5778 28.1736 33.2873 28.1396 32.9971 28.1156V31.2614C32.4058 31.284 31.8134 31.3196 31.2211 31.3196C30.6296 31.3196 30.0373 31.284 29.4457 31.2614V28.1156C29.1553 28.1396 28.8657 28.1736 28.5746 28.1736C28.2852 28.1736 27.9948 28.1396 27.7051 28.1156V36.0801C27.9948 36.0571 28.2852 36.02 28.5746 36.02C28.8657 36.02 29.1553 36.0571 29.4457 36.0801V32.1899C30.0373 32.1666 30.6296 32.1319 31.2211 32.1319C31.8134 32.1319 32.4058 32.1666 32.9971 32.1899V36.0801C33.2873 36.0571 33.5778 36.02 33.868 36.02C34.1576 36.02 34.4483 36.0571 34.7385 36.0801Z" fill="white"/>
<path fill-rule="evenodd" clip-rule="evenodd" d="M46.4414 36.08V28.0804C46.152 28.1037 45.8384 28.1037 45.5598 28.0804C44.4104 29.717 42.565 32.0622 41.1488 33.5594V28.1154C40.8592 28.1394 40.569 28.1733 40.2785 28.1733C39.9882 28.1733 39.6977 28.1394 39.4083 28.1154V36.08C39.6977 36.0677 39.9998 36.0677 40.2785 36.08C41.3696 34.5809 43.4006 32.0507 44.7001 30.5773V36.08C44.9913 36.0569 45.2809 36.0198 45.5598 36.0198C45.8616 36.0198 46.152 36.0569 46.4414 36.08Z" fill="white"/>
<path fill-rule="evenodd" clip-rule="evenodd" d="M56.4374 29.1026C56.4143 28.9404 56.3794 28.7772 56.3794 28.6037C56.3794 28.4405 56.4143 28.2785 56.4374 28.1156H50.4597C50.4829 28.2785 50.5182 28.4405 50.5182 28.6037C50.5182 28.7772 50.4829 28.9404 50.4597 29.1026C51.0628 29.0214 51.7949 28.9404 52.6188 28.9404V36.0809C52.9091 36.0577 53.1988 36.0206 53.489 36.0206C53.7794 36.0206 54.0696 36.0577 54.3601 36.0809V28.9404C55.0682 28.9404 55.7522 29.0214 56.4374 29.1026Z" fill="white"/>
<path fill-rule="evenodd" clip-rule="evenodd" d="M66.9322 31.8181C66.9322 33.7447 66.1314 35.5325 64.3439 35.5325C62.603 35.5325 61.9176 33.9307 61.9176 32.421C61.9176 29.822 62.8812 28.6034 64.4943 28.6034C66.2362 28.6034 66.9322 30.3215 66.9322 31.8181ZM68.8588 32.0389C68.8473 30.2395 67.8728 27.906 64.5648 27.906C61.6742 27.906 59.9916 29.7746 59.9916 32.0853C59.9916 34.72 61.7207 36.2311 64.2859 36.2311C67.1298 36.2311 68.8705 34.3023 68.8588 32.0389Z" fill="white"/>
<path fill-rule="evenodd" clip-rule="evenodd" d="M76.5808 30.2863C76.5808 30.9944 76.3021 31.6553 75.5476 31.8645C75.3044 31.9225 75.038 31.9342 74.7823 31.9465V28.7427H75.5011C76.105 28.7427 76.5808 29.3575 76.5808 30.2863ZM78.3792 30.0771C78.3792 28.7651 77.5097 28.1156 75.8958 28.1156H73.0411V36.0801C73.3306 36.0571 73.6208 36.0198 73.9104 36.0198C74.2017 36.0198 74.4912 36.0571 74.7823 36.0801V32.5837C76.8713 32.5837 78.3792 32.1427 78.3792 30.0771Z" fill="white"/>
<path fill-rule="evenodd" clip-rule="evenodd" d="M5.0966 43.3304C5.0966 41.8634 3.9871 40.9643 2.37994 40.9643C1.92355 40.9643 1.36831 41.0623 0.94746 41.2732C0.989148 41.5398 1.01773 41.7714 1.03163 42.0317H1.1297C1.35441 41.6315 1.82469 41.3861 2.32356 41.3861C3.0394 41.3861 3.79772 41.8842 3.91743 43.1128H2.3307C2.06331 43.1128 1.87432 43.0918 1.6772 43.064C1.69884 43.1474 1.71273 43.2523 1.71273 43.3444C1.71273 43.4433 1.69884 43.5414 1.6772 43.6394C1.86717 43.6037 2.07045 43.5906 2.3307 43.5906H3.92437C3.88189 44.5798 3.40387 45.5769 2.28108 45.5769C1.83243 45.5769 1.32583 45.359 1.00404 45.0501L0.911926 45.0926L0.989148 45.6542C1.43858 45.8942 1.82469 46 2.37994 46C3.86105 46 5.0966 45.1342 5.0966 43.3304Z" fill="white"/>
<path fill-rule="evenodd" clip-rule="evenodd" d="M16.094 45.9072L14.1349 41.0554C14.0436 41.0694 13.9596 41.105 13.8685 41.105C13.7772 41.105 13.6931 41.0694 13.6011 41.0554C12.8436 43.0564 12.2675 44.3967 11.5936 45.8941C11.7063 45.8864 11.818 45.8711 11.9308 45.8711C12.043 45.8711 12.1547 45.8864 12.2607 45.8941C12.5488 44.9228 12.9903 43.8417 13.6011 42.4029C14.1139 43.7226 14.521 44.7481 14.8861 45.9072C15.0823 45.9004 15.2792 45.8711 15.483 45.8711C15.6869 45.8711 15.8908 45.9004 16.094 45.9072Z" fill="white"/>
<path fill-rule="evenodd" clip-rule="evenodd" d="M25.5923 45.8712C25.5782 45.7725 25.5573 45.6672 25.5573 45.5692C25.5573 45.4711 25.5782 45.3655 25.5923 45.2674C25.1637 45.3237 24.6865 45.3576 23.9704 45.3655V43.5825H24.7002C25.016 43.5825 25.3043 43.6102 25.5635 43.6456C25.5498 43.547 25.5288 43.4419 25.5288 43.3437C25.5288 43.2448 25.5498 43.14 25.5635 43.0419C25.3043 43.0765 25.016 43.1052 24.7002 43.1052H23.9704V41.5956C24.6865 41.5809 25.1637 41.638 25.5923 41.6944C25.5782 41.5956 25.5573 41.4904 25.5573 41.3917C25.5573 41.2936 25.5782 41.1886 25.5923 41.0905H22.9171V45.8712H25.5923Z" fill="white"/>
<path fill-rule="evenodd" clip-rule="evenodd" d="M36.3583 45.9077V45.808L34.4699 43.0908C34.7153 42.8319 34.9191 42.5864 35.1371 42.3549L36.2883 41.1464V41.0905C36.1616 41.1055 36.0358 41.1261 35.916 41.1261C35.7902 41.1261 35.6634 41.1055 35.5369 41.0905C34.9471 41.8342 34.3361 42.5649 33.7113 43.2883V41.0905C33.5361 41.1055 33.361 41.1261 33.1847 41.1261C33.0094 41.1261 32.8343 41.1055 32.6588 41.0905V45.9077C32.8343 45.8946 33.0094 45.8716 33.1847 45.8716C33.361 45.8716 33.5361 45.8946 33.7113 45.9077V43.6738L35.306 45.9077C35.4805 45.8946 35.6566 45.8716 35.8321 45.8716C36.008 45.8716 36.1824 45.8946 36.3583 45.9077Z" fill="white"/>
<path fill-rule="evenodd" clip-rule="evenodd" d="M46.4165 41.6865C46.4026 41.5884 46.382 41.4904 46.382 41.3854C46.382 41.2867 46.4026 41.1886 46.4165 41.0905H42.801C42.8151 41.1886 42.8367 41.2867 42.8367 41.3854C42.8367 41.4904 42.8151 41.5884 42.801 41.6865C43.1662 41.638 43.6081 41.5884 44.107 41.5884V45.9075C44.2823 45.8934 44.4574 45.8712 44.6336 45.8712C44.809 45.8712 44.9841 45.8934 45.1593 45.9075V41.5884C45.5879 41.5884 46.0028 41.638 46.4165 41.6865Z" fill="white"/>
<path fill-rule="evenodd" clip-rule="evenodd" d="M55.4854 42.4034C55.4854 42.8319 55.3169 43.2327 54.8607 43.3586C54.7132 43.3933 54.5516 43.4003 54.3974 43.4072V41.4697H54.8329C55.1974 41.4697 55.4854 41.8412 55.4854 42.4034ZM56.5732 42.2767C56.5732 41.4844 56.0476 41.0905 55.0715 41.0905H53.343V45.9077C53.5193 45.8946 53.6946 45.8722 53.8707 45.8722C54.046 45.8722 54.2212 45.8946 54.3974 45.9077V43.7934C55.6605 43.7934 56.5732 43.5269 56.5732 42.2767Z" fill="white"/>
<path fill-rule="evenodd" clip-rule="evenodd" d="M67.7481 45.9079V41.0701C67.5722 41.0838 67.383 41.0838 67.2146 41.0701C66.5197 42.0601 65.4038 43.4779 64.5466 44.3837V41.0907C64.3714 41.1056 64.1952 41.1263 64.0208 41.1263C63.8445 41.1263 63.6694 41.1056 63.4933 41.0907V45.9079C63.6694 45.9011 63.8508 45.9011 64.0208 45.9079C64.68 45.0014 65.9088 43.4709 66.6948 42.5788V45.9079C66.8702 45.8947 67.0463 45.8717 67.2146 45.8717C67.3969 45.8717 67.5722 45.8947 67.7481 45.9079Z" fill="white"/>
<path fill-rule="evenodd" clip-rule="evenodd" d="M78.7611 45.9077V45.808L76.8722 43.0908C77.1178 42.8319 77.3216 42.5864 77.5392 42.3549L78.6905 41.1464V41.0905C78.5639 41.1055 78.438 41.1261 78.3185 41.1261C78.1927 41.1261 78.066 41.1055 77.94 41.0905C77.3492 41.8342 76.7386 42.5649 76.1138 43.2883V41.0905C75.9386 41.1055 75.7633 41.1261 75.5872 41.1261C75.4119 41.1261 75.2366 41.1055 75.0612 41.0905V45.9077C75.2366 45.8946 75.4119 45.8716 75.5872 45.8716C75.7633 45.8716 75.9386 45.8946 76.1138 45.9077V43.6738L77.7077 45.9077C77.883 45.8946 78.0589 45.8716 78.2342 45.8716C78.4097 45.8716 78.5849 45.8946 78.7611 45.9077Z" fill="white"/>
<path fill-rule="evenodd" clip-rule="evenodd" d="M0 38.1257H79.4055V38.6661H0V38.1257Z" fill="white"/>
</svg>
